<svg id="Layer_1" data-name="Layer 1" xmlns="http://www.w3.org/2000/svg" viewBox="0 0 110 50"><defs><style>.cls-1{fill:#071952;}</style></defs><path class="cls-1" d="M21.2,16.2V13.7l-2.1-.4a16,16,0,0,0-.5-2.1H15l-.3,2.1a6.4,6.4,0,0,0-1.5.3L11.8,12,8.7,13.8l.5,2S8.2,16.5,8,17a6.7,6.7,0,0,0-2.1-.6L4.2,19.2a3.1,3.1,0,0,0,1.1,1.6,15.6,15.6,0,0,0-.6,2.1l-2,.7v3.6l2.1.2a5.5,5.5,0,0,0,.6,2.2,5.3,5.3,0,0,0-1.1,1.9l1.5,2.4,2.1-.6a3.8,3.8,0,0,0,1.2,1.2l-.5,2.2,2.9,1.5,1.4-1.6a3.3,3.3,0,0,0,1.7.4l.4,2.1h3.5s.3-1.1.5-2.2a5.8,5.8,0,0,0,2.3-.6V34.2s-8.5,3.4-13.2-4.1c0,0-4.4-8.9,4.1-13.8C12.2,16.3,15.1,14,21.2,16.2Z"/><path class="cls-1" d="M21,17.8a9.3,9.3,0,0,0-8.3.3,8.3,8.3,0,0,0-4.1,6.3A7.2,7.2,0,0,0,9.5,29a8,8,0,0,0,5,3.8,9.3,9.3,0,0,0,6.6-.6V27.7a9,9,0,0,1-3.2,1.5,4.6,4.6,0,0,1-3.3-8.4s2.3-1.9,6.6,1.5Z"/><polygon class="cls-1" points="22.5 15.7 26.4 15.7 26.3 28.5 30.7 28.5 30.6 32.3 22.4 32.2 22.5 15.7"/><polygon class="cls-1" points="31.4 32.2 37.4 15.8 40.4 15.8 41 17.4 35.3 32.2 31.4 32.2"/><polygon class="cls-1" points="39.7 25 41.8 19.5 46.6 32.2 42.5 32.2 39.7 25"/><polygon class="cls-1" points="47.2 21.1 50.9 21.1 50.9 32.2 47.2 32.3 47.2 21.1"/><path class="cls-1" d="M47.2,19.3V15.8h9.5a3.2,3.2,0,0,1,3.4,3.1v3.9s-.3,2.8-2.6,3l3.3,6.5H56.7L52,22.6h2.9a1.6,1.6,0,0,0,1.3-.9l.2-1v-.4a.9.9,0,0,0-.9-.9H47.2Z"/><polygon class="cls-1" points="62 32.2 62.1 15.8 65.7 15.8 65.8 32.2 62 32.2"/><polygon class="cls-1" points="67.3 15.8 79.5 15.8 79.4 19.6 75.1 19.6 75.1 32.2 71.2 32.3 71.2 19.5 67.4 19.5 67.3 15.8"/><polygon class="cls-1" points="77.5 32.2 83.7 15.8 86.8 15.8 87.3 17.5 81.6 32.3 77.5 32.2"/><polygon class="cls-1" points="86.1 24.6 88.2 19.3 93.1 32.2 89 32.3 86.1 24.6"/><path class="cls-1" d="M105,15.8v3.6H97.4s-.7-.1-.7,1.2V21c0,.4,0,1,.6,1.1h5.2s3.1-.2,3.1,3.7v3.5s-.5,3-3.1,2.9H94.1V28.8h6.6a1.4,1.4,0,0,0,1.4-1.6h0s.2-1.1-1.2-1.1H96.1a2.7,2.7,0,0,1-2.8-2.3v-.4a21.5,21.5,0,0,1,.1-5,2.6,2.6,0,0,1,2.8-2.3Z"/><path class="cls-1" d="M105.7,9.5a2.9,2.9,0,0,1,2.9,2.9V37.6a2.9,2.9,0,0,1-2.9,2.9H4.3a2.9,2.9,0,0,1-2.9-2.9V12.4A2.9,2.9,0,0,1,4.3,9.5H105.7m0-1.4H4.3A4.3,4.3,0,0,0,0,12.4V37.6a4.3,4.3,0,0,0,4.3,4.3H105.7a4.3,4.3,0,0,0,4.3-4.3V12.4a4.3,4.3,0,0,0-4.3-4.3Z"/></svg>